<svg width="100" height="100" viewBox="0 0 100 100" fill="none" xmlns="http://www.w3.org/2000/svg">
<path d="M50.22 2C40.683 2 31.3602 4.82805 23.4304 10.1265C15.5007 15.425 9.32021 22.956 5.67055 31.767C2.02089 40.5781 1.06598 50.2735 2.92656 59.6273C4.78713 68.981 9.37964 77.573 16.1233 84.3167C22.867 91.0604 31.459 95.6529 40.8128 97.5135C50.1665 99.374 59.862 98.4191 68.673 94.7695C77.4841 91.1198 85.015 84.9393 90.3135 77.0096C95.612 69.0799 98.44 59.757 98.44 50.22C98.44 43.8877 97.1928 37.6173 94.7695 31.767C92.3462 25.9167 88.7944 20.601 84.3167 16.1233C79.8391 11.6457 74.5233 8.09381 68.673 5.67053C62.8227 3.24725 56.5524 2 50.22 2ZM35 78.06C32.93 78.0659 30.9047 77.4575 29.1806 76.3118C27.4565 75.166 26.1112 73.5345 25.3149 71.6237C24.5186 69.7129 24.3072 67.6088 24.7074 65.5778C25.1076 63.5468 26.1014 61.6802 27.5631 60.2143C29.0247 58.7485 30.8885 57.7493 32.9183 57.3432C34.9482 56.9372 37.0529 57.1426 38.9659 57.9334C40.879 58.7242 42.5144 60.0648 43.6651 61.7856C44.8158 63.5064 45.43 65.5299 45.43 67.6C45.43 70.369 44.3321 73.025 42.377 74.9857C40.4218 76.9465 37.769 78.0521 35 78.06ZM60.11 74.06C58.3861 74.06 56.7328 73.3752 55.5138 72.1562C54.2948 70.9372 53.61 69.2839 53.61 67.56C53.61 57.75 45.1 49.46 35.03 49.46C33.3061 49.46 31.6528 48.7752 30.4338 47.5562C29.2148 46.3372 28.53 44.6839 28.53 42.96C28.53 41.2361 29.2148 39.5828 30.4338 38.3638C31.6528 37.1448 33.3061 36.46 35.03 36.46C52.15 36.46 66.61 50.7 66.61 67.56C66.6153 68.4195 66.4501 69.2715 66.1239 70.0667C65.7978 70.8619 65.3171 71.5845 64.7099 72.1927C64.1026 72.801 63.3807 73.2827 62.586 73.6101C61.7913 73.9375 60.9395 74.104 60.08 74.1L60.11 74.06ZM80.72 68H80.16C78.5245 67.9973 76.9501 67.3781 75.7509 66.2661C74.5517 65.154 73.8158 63.6307 73.69 62C72.35 46.29 60.57 29.5 41.4 29.5C39.6761 29.5 38.0228 28.8152 36.8038 27.5962C35.5848 26.3772 34.9 24.7239 34.9 23C34.9 21.2761 35.5848 19.6228 36.8038 18.4038C38.0228 17.1848 39.6761 16.5 41.4 16.5C65 16.5 84.48 35.63 86.65 61C86.7857 62.7133 86.2385 64.4107 85.1276 65.722C84.0167 67.0334 82.4323 67.8522 80.72 68Z" fill="#8DCEFC"/>
<path d="M36.2 6.89019C60.08 -0.88981 86.2 12.2502 93.61 35.9402" stroke="url(#paint0_radial_316_87)" stroke-width="2" stroke-miterlimit="10"/>
<path d="M50.2201 5.6001C41.3951 5.6001 32.7683 8.21702 25.4306 13.1199C18.0929 18.0228 12.3738 24.9915 8.99661 33.1448C5.61943 41.298 4.73581 50.2696 6.45748 58.925C8.17915 67.5805 12.4288 75.531 18.669 81.7712C24.9092 88.0114 32.8598 92.2611 41.5152 93.9827C50.1706 95.7044 59.1422 94.8208 67.2955 91.4436C75.4487 88.0664 82.4174 82.3474 87.3203 75.0096C92.2232 67.6719 94.8401 59.0451 94.8401 50.2201C94.8401 44.3605 93.686 38.5583 91.4436 33.1448C89.2013 27.7312 85.9146 22.8123 81.7712 18.669C77.6279 14.5256 72.709 11.239 67.2955 8.99659C61.8819 6.75423 56.0797 5.6001 50.2201 5.6001ZM35.0001 78.0601C32.9301 78.066 30.9048 77.4576 29.1807 76.3119C27.4566 75.1661 26.1113 73.5346 25.315 71.6238C24.5187 69.713 24.3073 67.6089 24.7075 65.5779C25.1077 63.5469 26.1015 61.6803 27.5632 60.2144C29.0248 58.7486 30.8886 57.7494 32.9184 57.3433C34.9483 56.9373 37.053 57.1427 38.966 57.9335C40.8791 58.7243 42.5145 60.0649 43.6652 61.7857C44.8159 63.5065 45.4301 65.53 45.4301 67.6001C45.4301 70.3691 44.3322 73.0251 42.3771 74.9858C40.4219 76.9466 37.7691 78.0522 35.0001 78.0601ZM60.1101 74.0601C58.3862 74.0601 56.7329 73.3753 55.5139 72.1563C54.2949 70.9373 53.6101 69.284 53.6101 67.5601C53.6101 57.7501 45.1001 49.4601 35.0301 49.4601C33.3062 49.4601 31.6529 48.7753 30.4339 47.5563C29.2149 46.3373 28.5301 44.684 28.5301 42.9601C28.5301 41.2362 29.2149 39.5829 30.4339 38.3639C31.6529 37.1449 33.3062 36.4601 35.0301 36.4601C52.1501 36.4601 66.6101 50.7001 66.6101 67.5601C66.6154 68.4196 66.4502 69.2716 66.124 70.0668C65.7979 70.862 65.3172 71.5846 64.7099 72.1928C64.1027 72.8011 63.3808 73.2828 62.5861 73.6102C61.7914 73.9376 60.9396 74.1041 60.0801 74.1001L60.1101 74.0601ZM80.7201 68.0001H80.1601C78.5246 67.9974 76.9502 67.3782 75.751 66.2662C74.5518 65.1541 73.8159 63.6308 73.6901 62.0001C72.3501 46.2901 60.5701 29.5001 41.4001 29.5001C39.6762 29.5001 38.0229 28.8153 36.8039 27.5963C35.5849 26.3773 34.9001 24.724 34.9001 23.0001C34.9001 21.2762 35.5849 19.6229 36.8039 18.4039C38.0229 17.1849 39.6762 16.5001 41.4001 16.5001C65.0001 16.5001 84.4801 35.6301 86.6501 61.0001C86.7858 62.7134 86.2386 64.4108 85.1277 65.7221C84.0168 67.0335 82.4324 67.8523 80.7201 68.0001Z" fill="#2E7ACC"/>
<path d="M80.72 67.9998H80.16C78.5245 67.9971 76.9501 67.378 75.7509 66.2659C74.5517 65.1538 73.8158 63.6305 73.69 61.9998C73.2287 56.7518 71.7152 51.6504 69.24 46.9998C58.9301 38.1896 45.8014 33.371 32.24 33.4198C23.456 33.433 14.794 35.4762 6.93001 39.3898C4.39933 49.4849 5.47797 60.1472 9.97922 69.531C14.4805 78.9147 22.121 86.4293 31.5782 90.774C41.0355 95.1187 51.7142 96.0201 61.7659 93.322C71.8176 90.624 80.6096 84.4963 86.62 75.9998C85.9449 72.9184 84.9875 69.9057 83.76 66.9998C82.845 67.5794 81.8004 67.923 80.72 67.9998ZM35 78.0598C32.93 78.0657 30.9047 77.4573 29.1806 76.3116C27.4565 75.1658 26.1112 73.5343 25.3149 71.6235C24.5186 69.7127 24.3071 67.6086 24.7074 65.5776C25.1076 63.5466 26.1014 61.68 27.5631 60.2141C29.0247 58.7483 30.8885 57.7491 32.9183 57.343C34.9482 56.937 37.0529 57.1424 38.9659 57.9332C40.879 58.724 42.5144 60.0646 43.6651 61.7854C44.8158 63.5062 45.43 65.5297 45.43 67.5998C45.43 70.3688 44.3321 73.0248 42.377 74.9855C40.4218 76.9463 37.769 78.0519 35 78.0598ZM60.11 74.0598C58.3861 74.0598 56.7328 73.375 55.5138 72.156C54.2948 70.937 53.61 69.2837 53.61 67.5598C53.61 57.7498 45.1 49.4598 35.03 49.4598C33.3061 49.4598 31.6528 48.775 30.4338 47.556C29.2148 46.337 28.53 44.6837 28.53 42.9598C28.53 41.2359 29.2148 39.5826 30.4338 38.3636C31.6528 37.1446 33.3061 36.4598 35.03 36.4598C52.15 36.4598 66.61 50.6998 66.61 67.5598C66.6153 68.4193 66.4501 69.2713 66.1239 70.0665C65.7978 70.8617 65.3171 71.5843 64.7098 72.1926C64.1026 72.8008 63.3807 73.2825 62.586 73.6099C61.7912 73.9373 60.9395 74.1038 60.08 74.0998L60.11 74.0598Z" fill="#2E7ACC"/>
<defs>
<radialGradient id="paint0_radial_316_87" cx="0" cy="0" r="1" gradientUnits="userSpaceOnUse" gradientTransform="translate(66.2539 21.7427) rotate(-18.6157) scale(23.3169 23.3169)">
<stop stop-color="white"/>
<stop offset="0.21" stop-color="white" stop-opacity="0.99"/>
<stop offset="0.34" stop-color="white" stop-opacity="0.96"/>
<stop offset="0.46" stop-color="white" stop-opacity="0.9"/>
<stop offset="0.56" stop-color="white" stop-opacity="0.81"/>
<stop offset="0.66" stop-color="white" stop-opacity="0.71"/>
<stop offset="0.74" stop-color="white" stop-opacity="0.58"/>
<stop offset="0.83" stop-color="white" stop-opacity="0.42"/>
<stop offset="0.91" stop-color="white" stop-opacity="0.24"/>
<stop offset="0.99" stop-color="white" stop-opacity="0.04"/>
<stop offset="1" stop-color="white" stop-opacity="0"/>
</radialGradient>
</defs>
</svg>
